<mxfile host="Electron" agent="Mozilla/5.0 (Macintosh; Intel Mac OS X 10_15_7) AppleWebKit/537.36 (KHTML, like Gecko) draw.io/26.1.1 Chrome/132.0.6834.210 Electron/34.3.3 Safari/537.36" version="26.1.1">
  <diagram name="Page-1" id="9pGvoWjnil9AJdwiPgK3">
    <mxGraphModel dx="1114" dy="878" grid="1" gridSize="10" guides="1" tooltips="1" connect="1" arrows="1" fold="1" page="1" pageScale="1" pageWidth="827" pageHeight="1169" math="0" shadow="0">
      <root>
        <mxCell id="0" />
        <mxCell id="1" parent="0" />
        <mxCell id="RqCrsc6eGPN6xVsAbDo2-5" style="edgeStyle=orthogonalEdgeStyle;rounded=0;orthogonalLoop=1;jettySize=auto;html=1;entryX=0.5;entryY=0;entryDx=0;entryDy=0;endArrow=block;endFill=1;" edge="1" parent="1" source="RqCrsc6eGPN6xVsAbDo2-1" target="RqCrsc6eGPN6xVsAbDo2-2">
          <mxGeometry relative="1" as="geometry" />
        </mxCell>
        <mxCell id="RqCrsc6eGPN6xVsAbDo2-1" value="Job&lt;div&gt;runBlocking&lt;/div&gt;" style="rounded=1;whiteSpace=wrap;html=1;" vertex="1" parent="1">
          <mxGeometry x="80" y="80" width="90" height="40" as="geometry" />
        </mxCell>
        <mxCell id="RqCrsc6eGPN6xVsAbDo2-2" value="Job&lt;div&gt;Coroutine1&lt;/div&gt;" style="rounded=1;whiteSpace=wrap;html=1;" vertex="1" parent="1">
          <mxGeometry x="80" y="180" width="90" height="40" as="geometry" />
        </mxCell>
        <mxCell id="RqCrsc6eGPN6xVsAbDo2-6" style="rounded=0;orthogonalLoop=1;jettySize=auto;html=1;entryX=1;entryY=0.5;entryDx=0;entryDy=0;endArrow=block;endFill=1;" edge="1" parent="1" source="RqCrsc6eGPN6xVsAbDo2-3" target="RqCrsc6eGPN6xVsAbDo2-4">
          <mxGeometry relative="1" as="geometry" />
        </mxCell>
        <mxCell id="RqCrsc6eGPN6xVsAbDo2-3" value="Job&lt;div&gt;newJob&lt;/div&gt;" style="rounded=1;whiteSpace=wrap;html=1;" vertex="1" parent="1">
          <mxGeometry x="230" y="180" width="90" height="40" as="geometry" />
        </mxCell>
        <mxCell id="RqCrsc6eGPN6xVsAbDo2-4" value="Job&lt;div&gt;Coroutine2&lt;/div&gt;" style="rounded=1;whiteSpace=wrap;html=1;" vertex="1" parent="1">
          <mxGeometry x="80" y="280" width="90" height="40" as="geometry" />
        </mxCell>
      </root>
    </mxGraphModel>
  </diagram>
</mxfile>
